<svg xmlns="http://www.w3.org/2000/svg" xmlns:xlink="http://www.w3.org/1999/xlink" width="800" zoomAndPan="magnify" viewBox="0 0 600 599.999999" height="800" preserveAspectRatio="xMidYMid meet" version="1.0"><path fill="#ffffff" d="M 512.125 87.867188 C 455.460938 31.207031 380.128906 0 299.996094 0 C 219.863281 0 144.527344 31.207031 87.867188 87.867188 C 31.207031 144.527344 0 219.863281 0 299.996094 C 0 380.125 31.207031 455.460938 87.867188 512.125 C 144.527344 568.785156 219.863281 599.988281 299.996094 599.988281 C 380.128906 599.988281 455.460938 568.785156 512.125 512.125 C 568.785156 455.460938 599.988281 380.125 599.988281 299.996094 C 599.988281 219.863281 568.785156 144.527344 512.125 87.867188 Z M 101.480469 101.480469 C 154.503906 48.453125 225.007812 19.25 299.996094 19.25 C 374.984375 19.25 445.484375 48.453125 498.511719 101.480469 C 551.535156 154.503906 580.738281 225.003906 580.738281 299.996094 C 580.738281 362.332031 560.539062 421.558594 523.269531 470.234375 C 493.609375 428.757812 446.246094 404.257812 394.808594 404.257812 L 205.183594 404.257812 C 153.746094 404.257812 106.382812 428.757812 76.71875 470.234375 C 39.449219 421.558594 19.25 362.332031 19.25 299.996094 C 19.25 225.003906 48.453125 154.503906 101.480469 101.480469 Z M 299.996094 388.441406 C 377.074219 388.441406 439.777344 325.734375 439.777344 248.65625 C 439.777344 171.582031 377.074219 108.875 299.996094 108.875 C 222.917969 108.875 160.210938 171.582031 160.210938 248.65625 C 160.210938 325.734375 222.917969 388.441406 299.996094 388.441406 Z M 299.996094 388.441406 " fill-opacity="1" fill-rule="nonzero"/></svg>