<svg xmlns="http://www.w3.org/2000/svg" xmlns:xlink="http://www.w3.org/1999/xlink" width="800" zoomAndPan="magnify" viewBox="0 0 600 599.999999" height="800" preserveAspectRatio="xMidYMid meet" version="1.0"><path fill="#ffffff" d="M 556.496094 312.765625 L 532.894531 312.765625 L 532.894531 554.75 C 532.847656 555.5625 532.753906 556.375 532.625 557.179688 C 532.496094 557.984375 532.328125 558.78125 532.121094 559.570312 C 531.914062 560.359375 531.667969 561.132812 531.386719 561.898438 C 531.101562 562.664062 530.785156 563.414062 530.425781 564.148438 C 530.070312 564.878906 529.679688 565.59375 529.253906 566.289062 C 528.828125 566.984375 528.371094 567.660156 527.878906 568.308594 C 527.386719 568.960938 526.867188 569.585938 526.3125 570.183594 C 525.761719 570.785156 525.179688 571.355469 524.574219 571.898438 C 523.964844 572.445312 523.332031 572.957031 522.675781 573.4375 C 522.015625 573.917969 521.335938 574.367188 520.632812 574.78125 C 519.933594 575.199219 519.210938 575.578125 518.472656 575.921875 C 517.734375 576.269531 516.980469 576.574219 516.210938 576.847656 C 515.441406 577.117188 514.664062 577.351562 513.871094 577.546875 C 513.078125 577.742188 512.28125 577.898438 511.472656 578.015625 C 510.664062 578.132812 509.855469 578.210938 509.039062 578.25 C 508.226562 578.289062 507.410156 578.289062 506.597656 578.246094 L 367.191406 578.246094 L 367.191406 413.25 C 367.191406 412.6875 367.160156 412.121094 367.105469 411.5625 C 367.050781 411 366.96875 410.441406 366.859375 409.886719 C 366.75 409.335938 366.613281 408.789062 366.449219 408.246094 C 366.285156 407.707031 366.09375 407.175781 365.878906 406.65625 C 365.664062 406.132812 365.421875 405.625 365.15625 405.125 C 364.890625 404.628906 364.601562 404.144531 364.285156 403.675781 C 363.972656 403.207031 363.636719 402.753906 363.277344 402.316406 C 362.921875 401.878906 362.542969 401.460938 362.144531 401.0625 C 361.746094 400.664062 361.328125 400.285156 360.890625 399.925781 C 360.453125 399.570312 360 399.234375 359.53125 398.917969 C 359.0625 398.605469 358.582031 398.316406 358.082031 398.050781 C 357.585938 397.78125 357.074219 397.542969 356.554688 397.324219 C 356.03125 397.109375 355.5 396.917969 354.960938 396.753906 C 354.421875 396.589844 353.875 396.453125 353.320312 396.34375 C 352.769531 396.234375 352.210938 396.148438 351.648438 396.09375 C 351.085938 396.039062 350.523438 396.011719 349.960938 396.011719 L 248.8125 396.011719 C 248.25 396.011719 247.6875 396.039062 247.125 396.09375 C 246.5625 396.148438 246.003906 396.230469 245.453125 396.339844 C 244.898438 396.453125 244.351562 396.589844 243.8125 396.753906 C 243.269531 396.917969 242.738281 397.105469 242.21875 397.324219 C 241.695312 397.539062 241.1875 397.78125 240.6875 398.046875 C 240.191406 398.3125 239.707031 398.601562 239.238281 398.914062 C 238.769531 399.230469 238.316406 399.566406 237.878906 399.925781 C 237.445312 400.28125 237.027344 400.660156 236.628906 401.058594 C 236.226562 401.460938 235.847656 401.878906 235.492188 402.3125 C 235.132812 402.75 234.796875 403.203125 234.484375 403.671875 C 234.171875 404.140625 233.882812 404.625 233.617188 405.125 C 233.347656 405.621094 233.109375 406.132812 232.894531 406.652344 C 232.675781 407.175781 232.488281 407.707031 232.324219 408.246094 C 232.160156 408.785156 232.023438 409.332031 231.914062 409.886719 C 231.804688 410.441406 231.722656 411 231.667969 411.5625 C 231.609375 412.121094 231.582031 412.6875 231.585938 413.25 L 231.585938 578.234375 L 92.164062 578.234375 C 91.355469 578.277344 90.542969 578.28125 89.730469 578.246094 C 88.917969 578.210938 88.109375 578.132812 87.304688 578.019531 C 86.5 577.902344 85.703125 577.75 84.914062 577.554688 C 84.125 577.363281 83.347656 577.128906 82.582031 576.859375 C 81.8125 576.589844 81.0625 576.285156 80.324219 575.941406 C 79.589844 575.597656 78.871094 575.21875 78.167969 574.808594 C 77.46875 574.394531 76.792969 573.945312 76.136719 573.46875 C 75.480469 572.988281 74.847656 572.476562 74.242188 571.933594 C 73.636719 571.394531 73.058594 570.824219 72.507812 570.226562 C 71.957031 569.628906 71.4375 569.003906 70.949219 568.355469 C 70.460938 567.707031 70.003906 567.035156 69.578125 566.339844 C 69.15625 565.648438 68.765625 564.933594 68.414062 564.203125 C 68.058594 563.472656 67.742188 562.722656 67.460938 561.960938 C 67.179688 561.199219 66.9375 560.425781 66.730469 559.636719 C 66.527344 558.851562 66.359375 558.058594 66.234375 557.253906 C 66.105469 556.453125 66.019531 555.644531 65.96875 554.832031 L 65.96875 312.765625 L 42.269531 312.765625 C 16 312.765625 1.769531 288.03125 18.980469 272.164062 L 278.359375 32.371094 C 279.167969 31.6875 280.007812 31.039062 280.875 30.425781 C 281.742188 29.816406 282.632812 29.242188 283.550781 28.710938 C 284.46875 28.175781 285.40625 27.683594 286.367188 27.234375 C 287.328125 26.785156 288.304688 26.378906 289.304688 26.011719 C 290.300781 25.648438 291.308594 25.328125 292.335938 25.054688 C 293.359375 24.78125 294.394531 24.550781 295.4375 24.367188 C 296.484375 24.183594 297.535156 24.042969 298.59375 23.953125 C 299.648438 23.863281 300.707031 23.816406 301.769531 23.820312 C 302.828125 23.820312 303.886719 23.871094 304.945312 23.964844 C 306 24.0625 307.050781 24.203125 308.097656 24.390625 C 309.140625 24.578125 310.175781 24.8125 311.199219 25.089844 C 312.222656 25.371094 313.230469 25.695312 314.226562 26.0625 C 315.222656 26.429688 316.199219 26.839844 317.15625 27.296875 C 318.117188 27.75 319.054688 28.246094 319.96875 28.78125 C 320.882812 29.316406 321.773438 29.894531 322.636719 30.507812 C 323.5 31.125 324.335938 31.777344 325.144531 32.464844 C 410.058594 112.390625 495.011719 192.316406 580 272.246094 C 596.890625 288.269531 582.671875 312.765625 556.496094 312.765625 Z M 556.496094 312.765625 " fill-opacity="1" fill-rule="nonzero"/></svg>