<svg xmlns="http://www.w3.org/2000/svg" xmlns:xlink="http://www.w3.org/1999/xlink" width="800" zoomAndPan="magnify" viewBox="0 0 600 599.999999" height="800" preserveAspectRatio="xMidYMid meet" version="1.0"><defs><g/></defs><path fill="#ffffff" d="M 165.535156 467.027344 L 332.144531 300 L 165.535156 132.972656 Z M 165.535156 467.027344 " fill-opacity="1" fill-rule="nonzero"/><path fill="#ffffff" d="M 332.144531 132.972656 L 332.144531 467.027344 L 498.839844 300 Z M 332.144531 132.972656 " fill-opacity="1" fill-rule="nonzero"/><path fill="#ffffff" d="M 300 0 C 134.546875 0 0 134.546875 0 300 C 0 465.453125 134.546875 600 300 600 C 465.453125 600 600 465.453125 600 300 C 600 134.546875 465.453125 0 300 0 Z M 300 576.71875 C 147.390625 576.71875 23.28125 452.609375 23.28125 300 C 23.28125 147.390625 147.390625 23.28125 300 23.28125 C 452.609375 23.28125 576.71875 147.390625 576.71875 300 C 576.71875 452.609375 452.609375 576.71875 300 576.71875 Z M 300 576.71875 " fill-opacity="1" fill-rule="nonzero"/><g fill="#ffffff" fill-opacity="1"><g transform="translate(224.130723, 312.551843)"><g><path d="M 5.578125 0 L 5.578125 -44.265625 L 14.953125 -44.265625 L 14.953125 0 Z M 5.578125 0 "/></g></g></g></svg>