<svg xmlns="http://www.w3.org/2000/svg" xmlns:xlink="http://www.w3.org/1999/xlink" width="800" zoomAndPan="magnify" viewBox="0 0 600 599.999999" height="800" preserveAspectRatio="xMidYMid meet" version="1.0"><defs><g/></defs><path fill="#ffffff" d="M 300 0 C 134.234375 0 0 135.136719 0 300 C 0 465.765625 135.136719 600 300 600 C 465.765625 600 600 464.863281 600 300 C 600 134.234375 465.765625 0 300 0 Z M 300 572.972656 C 149.550781 572.972656 27.027344 450.449219 27.027344 300 C 27.027344 149.550781 149.550781 27.027344 300 27.027344 C 450.449219 27.027344 572.972656 149.550781 572.972656 300 C 572.972656 450.449219 450.449219 572.972656 300 572.972656 Z M 300 572.972656 " fill-opacity="1" fill-rule="nonzero"/><path fill="#ffffff" d="M 263.0625 154.054688 L 222.523438 154.054688 C 212.613281 154.054688 204.503906 162.164062 204.503906 172.070312 L 204.503906 427.027344 C 204.503906 436.9375 212.613281 445.046875 222.523438 445.046875 L 263.0625 445.046875 C 272.972656 445.046875 281.082031 436.9375 281.082031 427.027344 L 281.082031 172.070312 C 281.082031 162.164062 272.972656 154.054688 263.0625 154.054688 Z M 263.0625 154.054688 " fill-opacity="1" fill-rule="nonzero"/><path fill="#ffffff" d="M 377.476562 154.054688 L 336.9375 154.054688 C 327.027344 154.054688 318.917969 162.164062 318.917969 172.070312 L 318.917969 427.027344 C 318.917969 436.9375 327.027344 445.046875 336.9375 445.046875 L 377.476562 445.046875 C 387.386719 445.046875 395.496094 436.9375 395.496094 427.027344 L 395.496094 172.070312 C 395.496094 162.164062 387.386719 154.054688 377.476562 154.054688 Z M 377.476562 154.054688 " fill-opacity="1" fill-rule="nonzero"/><g fill="#ffffff" fill-opacity="1"><g transform="translate(341.925425, 348.087135)"><g><path d="M 4.453125 -42.59375 C 4.453125 -45.601562 6.125 -47.109375 9.46875 -47.109375 C 12.820312 -47.109375 14.5 -45.601562 14.5 -42.59375 C 14.5 -41.164062 14.078125 -40.050781 13.234375 -39.25 C 12.398438 -38.445312 11.144531 -38.046875 9.46875 -38.046875 C 6.125 -38.046875 4.453125 -39.5625 4.453125 -42.59375 Z M 14.078125 0 L 4.84375 0 L 4.84375 -33.84375 L 14.078125 -33.84375 Z M 14.078125 0 "/></g></g></g></svg>