<svg xmlns="http://www.w3.org/2000/svg" xmlns:xlink="http://www.w3.org/1999/xlink" width="800" zoomAndPan="magnify" viewBox="0 0 600 599.999999" height="800" preserveAspectRatio="xMidYMid meet" version="1.0"><defs><g/></defs><path fill="#ffffff" d="M 300.039062 17.335938 C 144.15625 17.335938 17.347656 144.15625 17.347656 300.03125 C 17.347656 455.910156 144.15625 582.722656 300.039062 582.722656 C 455.910156 582.722656 582.734375 455.910156 582.734375 300.03125 C 582.734375 144.15625 455.910156 17.335938 300.039062 17.335938 Z M 300.039062 600.078125 C 134.597656 600.078125 0 465.480469 0 300.03125 C 0 134.589844 134.597656 -0.0078125 300.039062 -0.0078125 C 465.480469 -0.0078125 600.078125 134.589844 600.078125 300.03125 C 600.078125 465.480469 465.480469 600.078125 300.039062 600.078125 " fill-opacity="1" fill-rule="nonzero"/><path fill="#ffffff" d="M 447.777344 300.03125 L 217.964844 167.351562 L 217.964844 432.71875 L 447.777344 300.03125 L 217.964844 167.351562 L 217.964844 432.71875 L 447.777344 300.03125 " fill-opacity="1" fill-rule="nonzero"/><g fill="#ffffff" fill-opacity="1"><g transform="translate(290.535926, 279.750008)"><g><path d="M 4.453125 -42.59375 C 4.453125 -45.601562 6.125 -47.109375 9.46875 -47.109375 C 12.820312 -47.109375 14.5 -45.601562 14.5 -42.59375 C 14.5 -41.164062 14.078125 -40.050781 13.234375 -39.25 C 12.398438 -38.445312 11.144531 -38.046875 9.46875 -38.046875 C 6.125 -38.046875 4.453125 -39.5625 4.453125 -42.59375 Z M 14.078125 0 L 4.84375 0 L 4.84375 -33.84375 L 14.078125 -33.84375 Z M 14.078125 0 "/></g></g></g></svg>