<svg xmlns="http://www.w3.org/2000/svg" xmlns:xlink="http://www.w3.org/1999/xlink" width="800" zoomAndPan="magnify" viewBox="0 0 600 599.999999" height="800" preserveAspectRatio="xMidYMid meet" version="1.0"><path fill="#ffffff" d="M 385.652344 438.746094 L 532.609375 585.65625 C 547.160156 600.203125 570.789062 600.195312 585.335938 585.648438 C 599.882812 571.089844 599.878906 547.464844 585.328125 532.914062 L 438.46875 386.105469 C 468.011719 345.925781 485.476562 296.300781 485.476562 242.625 C 485.476562 108.714844 376.761719 0 242.851562 0 C 108.941406 0 0.222656 108.714844 0.222656 242.625 C 0.222656 376.535156 108.941406 485.253906 242.851562 485.253906 C 296.214844 485.253906 345.574219 467.992188 385.652344 438.746094 Z M 242.851562 74.574219 C 335.601562 74.574219 410.910156 149.875 410.910156 242.625 C 410.910156 335.378906 335.601562 410.683594 242.851562 410.683594 C 150.097656 410.683594 74.796875 335.378906 74.796875 242.625 C 74.796875 149.875 150.097656 74.574219 242.851562 74.574219 Z M 242.851562 74.574219 " fill-opacity="1" fill-rule="evenodd"/></svg>