<?xml version="1.0" standalone="no"?>
<!DOCTYPE svg PUBLIC "-//W3C//DTD SVG 20010904//EN"
 "http://www.w3.org/TR/2001/REC-SVG-20010904/DTD/svg10.dtd">
<svg version="1.0" xmlns="http://www.w3.org/2000/svg"
 width="640.000000pt" height="640.000000pt" viewBox="0 0 640.000000 640.000000"
 preserveAspectRatio="xMidYMid meet">

<g transform="translate(0.000000,640.000000) scale(0.100000,-0.100000)"
fill="#000000" stroke="none">
<path d="M2020 5290 l0 -260 180 0 180 0 0 85 0 85 -90 0 -90 0 0 175 0 175
-90 0 -90 0 0 -260z"/>
<path d="M2400 5290 l0 -260 95 0 95 0 -2 258 -3 257 -92 3 -93 3 0 -261z"/>
<path d="M2605 5538 c-3 -7 -4 -124 -3 -258 l3 -245 87 -3 87 -3 3 128 3 128
154 -245 c85 -135 160 -252 168 -260 11 -12 13 45 11 375 l-3 390 -87 3 -88 3
0 -132 0 -132 -77 129 -78 129 -88 3 c-65 2 -89 -1 -92 -10z"/>
<path d="M3135 5538 c-3 -7 -4 -124 -3 -258 l3 -245 90 0 90 0 5 98 5 98 58
-100 59 -101 194 0 194 0 0 260 0 260 -90 0 -90 0 0 -240 c0 -132 -3 -240 -7
-240 -5 0 -41 51 -82 112 -56 85 -71 115 -64 127 111 180 141 230 136 235 -4
3 -48 6 -100 6 l-93 0 -25 -40 c-14 -22 -40 -69 -57 -106 l-33 -66 -5 104 -5
103 -88 3 c-65 2 -89 -1 -92 -10z"/>
<path d="M3857 5544 c-4 -4 -7 -121 -7 -261 l0 -253 90 0 89 0 3 126 3 126 74
-126 74 -127 91 3 91 3 0 255 0 255 -87 3 -87 3 -3 -131 -3 -131 -75 128 -75
128 -86 3 c-47 1 -88 0 -92 -4z"/>
<path d="M2020 4696 l0 -326 115 0 115 0 0 95 0 95 68 0 c83 1 146 15 184 41
15 11 28 17 28 12 0 -4 -18 -57 -40 -117 -22 -61 -40 -114 -40 -118 0 -4 55
-8 123 -8 l123 0 10 38 9 37 87 3 87 3 11 -41 11 -40 224 0 224 0 3 103 3 102
41 -75 c22 -41 99 -186 170 -322 71 -136 131 -248 134 -248 3 0 4 101 2 225
l-3 225 -64 112 c-35 62 -65 119 -67 125 -2 7 13 20 32 30 53 27 83 92 77 168
-5 76 -26 117 -78 154 -55 40 -141 53 -324 49 l-150 -3 0 -273 c0 -149 -3
-272 -7 -272 -4 0 -8 8 -10 18 -2 9 -43 133 -93 275 l-90 257 -217 0 c-120 0
-218 -3 -218 -7 0 -4 28 -35 62 -70 l61 -62 -19 -63 -19 -63 -6 55 c-11 100
-54 159 -139 190 -22 8 -106 15 -227 18 l-193 4 0 -326z m1430 134 c38 -38 19
-92 -36 -106 -44 -11 -54 0 -54 66 l0 60 35 0 c22 0 43 -8 55 -20z m-1103 -17
c18 -24 16 -40 -7 -63 -12 -12 -33 -20 -55 -20 l-35 0 0 48 c0 27 3 52 8 56
12 13 76 -2 89 -21z m477 -94 c10 -45 20 -87 22 -94 4 -9 -7 -14 -36 -17 -22
-2 -45 -1 -49 2 -9 5 29 190 39 190 4 0 14 -36 24 -81z"/>
<path d="M3730 4695 l0 -325 110 0 110 0 1 108 c1 59 1 118 1 131 -2 34 6 23
86 -114 l70 -120 142 -3 c113 -2 140 0 134 10 -4 7 -54 81 -111 164 l-103 152
91 147 c50 81 93 153 96 161 4 12 -18 14 -124 14 l-130 0 -74 -137 -74 -138
-3 138 -3 137 -109 0 -110 0 0 -325z"/>
<path d="M4357 2279 c-10 -6 -23 -9 -30 -6 -6 2 -18 -2 -25 -10 -7 -7 -22 -13
-32 -13 -11 0 -24 -9 -30 -19 -5 -11 -17 -27 -26 -35 -8 -9 -11 -16 -6 -16 5
0 7 -12 4 -26 -3 -16 1 -29 9 -34 7 -5 14 -19 14 -32 1 -13 7 -33 14 -46 6
-12 13 -38 15 -57 3 -44 9 -50 52 -47 31 2 34 0 26 -14 -6 -10 -6 -30 -2 -46
5 -15 5 -41 0 -58 -16 -54 -39 -243 -50 -410 -6 -91 -15 -183 -20 -205 -11
-47 -7 -54 19 -31 19 17 19 16 16 -16 -4 -42 -16 -90 -25 -103 -4 -5 -10 -23
-13 -40 -3 -16 -13 -61 -22 -100 -27 -123 -45 -228 -52 -305 -4 -44 -13 -85
-23 -100 -75 -113 -90 -140 -92 -166 -4 -46 -16 -53 -82 -42 -37 7 -61 7 -67
1 -13 -13 84 -24 209 -24 75 -1 97 3 113 17 21 19 25 40 9 46 -6 2 10 41 35
88 27 49 57 126 72 183 14 53 30 97 35 97 4 0 8 -35 9 -77 0 -43 3 -132 5
-198 l5 -120 -28 -22 -27 -22 64 4 c48 3 72 -1 90 -12 13 -9 44 -21 70 -28 27
-7 45 -17 45 -26 0 -8 4 -17 10 -21 17 -12 1 -16 -25 -5 -32 13 -48 17 -85 22
-16 2 -30 4 -30 5 0 1 -15 2 -34 3 -22 1 -36 -3 -39 -12 -4 -11 4 -13 34 -8
27 4 45 1 58 -8 22 -16 10 -20 -14 -5 -9 6 -17 5 -22 -3 -5 -9 -14 -9 -35 -1
-29 11 -58 3 -75 -21 -5 -6 -8 -5 -8 3 0 14 -36 16 -45 2 -9 -14 -27 -12 -22
3 4 12 8 13 50 16 13 0 32 7 43 15 18 14 18 15 -9 12 -15 -1 -30 -5 -33 -9 -4
-3 -20 -3 -36 0 -20 4 -33 1 -39 -8 -5 -8 -9 -9 -9 -4 0 6 -23 11 -51 13 -33
2 -48 -1 -44 -8 4 -6 -8 -10 -30 -10 -24 0 -34 -4 -29 -11 4 -8 0 -9 -15 -4
-14 4 -21 3 -19 -5 2 -7 -3 -15 -10 -17 -8 -3 -10 1 -6 11 3 9 1 16 -5 16 -6
0 -11 -6 -11 -13 0 -7 -9 -18 -20 -24 -16 -11 -18 -10 -14 2 5 12 -5 14 -55
12 -33 -1 -56 -4 -50 -6 6 -2 3 -11 -7 -22 -11 -12 -22 -16 -33 -10 -9 5 -25
7 -36 4 -11 -2 -39 -5 -62 -7 -23 -1 -49 -8 -57 -15 -10 -8 -16 -9 -21 -1 -3
5 2 10 12 10 15 0 14 2 -5 15 -18 14 -25 14 -44 2 -27 -16 -53 -17 -53 0 0 6
-3 14 -7 18 -4 4 -1 14 7 22 18 17 19 39 4 48 -12 8 -49 -23 -49 -42 0 -7 -5
-13 -10 -13 -7 0 -7 6 0 19 7 14 7 22 -2 27 -7 4 -8 3 -4 -5 4 -6 0 -14 -11
-17 -10 -3 -30 -12 -45 -20 -17 -9 -28 -11 -28 -5 0 6 5 11 10 11 6 0 10 3 10
8 0 4 -25 7 -55 8 -31 1 -53 -1 -51 -4 3 -2 -6 -14 -20 -25 -19 -15 -28 -17
-37 -8 -9 9 -7 13 9 17 12 3 21 15 22 29 1 21 -3 23 -53 27 -30 1 -56 0 -58
-3 -1 -4 -17 -4 -34 -2 -18 3 -30 9 -27 14 3 5 0 9 -5 9 -6 0 -11 -4 -11 -9 0
-5 -16 -8 -35 -6 -29 3 -39 -1 -52 -21 -15 -23 -17 -24 -34 -8 -11 10 -19 13
-19 9 0 -4 -8 1 -17 11 -17 18 -33 20 -93 14 -19 -2 -15 -4 18 -12 23 -5 42
-13 42 -18 0 -5 -7 -7 -15 -4 -18 7 -19 0 -4 -29 12 -21 11 -21 -12 -6 -24 16
-68 30 -101 34 -10 1 -21 5 -25 10 -5 4 2 6 14 3 13 -4 24 -1 27 7 6 15 -57
18 -284 12 -58 -2 -111 -6 -118 -11 -6 -4 -21 -2 -32 4 -16 9 -22 8 -26 -5 -8
-19 -24 -20 -24 -1 0 11 -7 13 -31 6 -16 -5 -37 -6 -46 -3 -9 4 -14 2 -10 -3
3 -6 -23 -11 -68 -12 -68 -2 -73 -1 -68 17 3 13 10 18 21 14 10 -4 14 -3 11 1
-4 4 -16 8 -27 11 -15 3 -19 0 -15 -11 4 -10 -2 -17 -16 -21 -11 -3 -18 -10
-15 -17 3 -6 -1 -3 -9 6 -8 10 -17 15 -20 11 -4 -3 -7 -1 -7 4 0 6 6 14 13 17
6 3 3 4 -8 1 -11 -2 -37 -7 -58 -11 -38 -6 -61 -24 -33 -24 9 0 16 -4 16 -10
0 -12 -2 -12 -36 0 -21 8 -29 8 -36 -2 -6 -11 -8 -11 -8 0 0 7 -4 11 -9 8 -17
-11 -81 -14 -87 -4 -4 6 -9 5 -15 -3 -9 -15 -116 -22 -125 -8 -3 5 5 9 18 9
13 0 29 4 37 9 16 10 -126 6 -159 -4 -29 -9 -25 5 14 48 25 28 41 37 62 37 16
-1 49 4 74 11 25 6 73 11 108 10 71 -2 71 -1 47 83 -9 29 -31 71 -50 94 -30
35 -35 47 -35 94 -1 31 -7 61 -15 72 -8 11 -15 31 -15 44 0 29 -28 181 -42
234 -6 20 -7 49 -4 65 4 15 8 46 9 67 2 22 8 41 14 43 14 5 7 181 -12 318 -8
55 -17 134 -21 175 -7 96 -21 147 -42 165 -9 8 -42 29 -72 47 -45 27 -55 38
-56 61 -1 16 -8 36 -17 44 -15 15 -15 19 1 46 13 23 14 31 5 34 -8 3 -13 21
-13 42 0 49 -24 71 -79 71 -57 0 -79 -14 -87 -55 -3 -19 -10 -38 -15 -40 -4
-3 -3 -19 3 -35 7 -21 7 -34 0 -43 -6 -6 -13 -28 -17 -48 -6 -33 -14 -40 -73
-70 -94 -48 -108 -73 -117 -206 -15 -204 -3 -426 28 -541 9 -34 19 -47 43 -57
30 -12 31 -16 37 -87 4 -41 2 -101 -4 -134 -23 -125 -30 -310 -15 -384 5 -25
9 -53 10 -62 0 -15 10 -18 63 -18 62 0 89 -13 36 -17 -96 -7 -152 -17 -157
-28 -3 -8 2 -11 15 -8 10 3 19 0 19 -6 0 -6 6 -10 13 -8 6 1 11 -4 10 -10 -2
-7 4 -13 13 -13 8 0 12 5 9 10 -8 12 0 13 23 1 9 -5 55 -15 102 -21 47 -6 96
-17 109 -24 23 -13 23 -13 3 -18 -13 -4 -20 -1 -19 6 1 6 -11 12 -26 14 -27 3
-28 2 -17 -20 10 -18 10 -21 0 -11 -7 6 -19 9 -28 6 -10 -4 -13 -2 -8 5 4 7 3
12 -3 12 -5 0 -11 -5 -13 -10 -2 -6 -16 -13 -31 -16 -21 -3 -27 -1 -21 7 4 7
3 9 -3 6 -6 -4 -25 -4 -43 -1 -21 5 -27 9 -19 15 23 14 3 20 -27 8 -27 -10
-27 -12 -9 -19 l20 -7 -20 -5 c-11 -2 -27 4 -36 14 -15 17 -18 17 -48 2 -18
-9 -34 -14 -37 -11 -3 3 8 11 25 18 24 11 28 16 18 28 -10 12 -9 14 8 8 19 -7
19 -6 2 7 -13 10 -15 15 -5 18 7 3 -1 7 -19 10 -18 2 -30 1 -28 -3 3 -3 -14
-7 -38 -8 -60 -3 -59 -3 -95 4 -32 6 -33 5 -27 -17 6 -18 5 -21 -5 -11 -9 9
-19 9 -32 2 -11 -6 -22 -8 -25 -5 -3 3 7 11 23 17 25 10 26 13 9 17 -12 3 -26
-4 -37 -18 -16 -20 -18 -20 -18 -4 0 11 -3 15 -8 8 -12 -18 -105 -40 -110 -26
-2 7 -8 12 -13 12 -6 0 -7 -4 -4 -10 9 -15 -8 -12 -33 6 -21 15 -22 14 -13 -9
8 -21 6 -24 -12 -23 -12 1 -27 5 -34 9 -6 4 -14 3 -18 -2 -3 -6 -13 -7 -22 -4
-9 4 -14 2 -11 -3 3 -5 -14 -9 -38 -10 -24 0 -41 3 -39 7 10 15 -21 15 -43 1
-18 -12 -28 -13 -41 -5 -18 12 -99 16 -115 6 -5 -4 -1 -10 10 -14 17 -7 17 -8
-3 -8 -13 -1 -23 -6 -23 -13 0 -6 -6 -3 -14 7 -8 11 -12 24 -9 30 4 6 2 6 -3
2 -5 -5 -9 -14 -9 -20 0 -18 -28 -19 -50 -3 -20 15 -20 15 1 10 12 -3 26 1 33
10 11 14 11 16 -3 16 -11 0 -15 -5 -10 -12 6 -10 4 -10 -7 0 -15 14 -59 16
-59 3 0 -5 3 -11 8 -14 4 -2 2 -2 -5 -1 -7 2 -15 -1 -18 -7 -4 -5 -15 -3 -28
6 -27 19 -37 19 -37 0 0 -8 -10 -20 -22 -26 -21 -11 -22 -11 -9 5 13 15 12 16
-11 7 -14 -5 -29 -7 -32 -4 -3 4 -6 -30 -6 -75 l0 -82 3200 0 3200 0 0 155 0
155 -690 0 -690 0 0 175 0 175 690 0 690 0 0 123 0 122 -164 -4 -163 -3 -11
30 c-6 17 -8 33 -4 37 3 3 7 36 9 73 5 142 14 183 39 192 23 9 24 14 24 92 -1
46 -5 152 -10 236 -7 136 -11 157 -34 196 -14 23 -41 54 -60 67 -20 13 -38 31
-41 40 -3 10 -16 28 -29 40 -14 15 -26 42 -30 71 -11 74 -72 120 -130 98 -31
-12 -66 -65 -66 -101 0 -38 27 -110 51 -135 13 -14 17 -24 10 -29 -18 -10 -12
-44 9 -57 27 -17 25 -35 -14 -133 -19 -46 -37 -102 -41 -125 -4 -22 -10 -42
-14 -45 -4 -2 -6 -31 -4 -64 2 -33 0 -83 -6 -113 -5 -29 -6 -54 -1 -56 4 -2 6
-12 3 -22 -5 -17 0 -20 31 -20 34 0 35 -1 29 -30 -4 -23 -1 -34 13 -45 11 -9
14 -14 6 -15 -8 0 -11 -11 -8 -32 2 -18 7 -59 11 -90 l8 -58 -332 0 c-182 0
-331 3 -331 6 0 3 11 50 25 105 20 78 24 113 19 162 -3 34 -9 168 -12 297 -7
218 -9 238 -28 264 l-21 29 28 63 c36 79 48 133 37 163 -10 29 -44 60 -61 57
-7 -2 -29 -6 -49 -10 -39 -8 -74 -38 -64 -55 4 -5 2 -12 -4 -16 -5 -3 -9 -32
-9 -65 1 -65 -11 -85 -69 -114 -50 -26 -111 -85 -128 -125 -8 -19 -22 -71 -30
-115 -39 -204 -41 -272 -10 -377 9 -31 17 -67 18 -80 2 -21 7 -24 45 -25 55
-1 64 -11 68 -68 1 -26 7 -52 13 -59 16 -20 7 -176 -17 -292 -13 -60 -24 -142
-25 -182 -1 -39 -7 -77 -13 -85 -5 -7 -8 -32 -5 -55 5 -48 20 -56 93 -44 54 9
69 5 69 -18 0 -15 -14 -16 -124 -15 -68 1 -129 4 -135 8 -6 4 -43 9 -83 12
-40 2 -76 8 -81 13 -10 10 -11 40 -1 92 3 21 2 39 -4 43 -6 3 -8 55 -5 133 4
102 2 141 -12 193 -10 36 -19 112 -21 172 -2 94 1 117 22 180 14 40 28 81 31
91 3 10 10 16 16 14 6 -2 18 4 28 14 16 16 15 24 -9 135 -22 103 -25 141 -24
284 2 201 -11 251 -91 334 -31 33 -44 52 -35 54 14 3 48 83 48 113 0 9 -9 28
-21 43 -11 14 -17 30 -14 36 3 5 1 10 -4 10 -6 0 -11 9 -11 20 0 21 -43 45
-60 35 -5 -3 -11 -1 -15 5 -8 13 -35 12 -58 -1z m-3111 -885 c-4 -14 -9 -24
-12 -21 -3 2 -2 17 2 31 3 15 9 25 11 22 3 -3 2 -17 -1 -32z m-5 -162 c-8 -12
-10 3 -9 58 l0 75 10 -58 c6 -37 5 -63 -1 -75z m418 -30 c1 -13 -3 -21 -8 -18
-5 3 -9 23 -9 43 0 29 2 33 9 18 4 -11 8 -30 8 -43z m-409 4 c0 -3 -4 -8 -10
-11 -5 -3 -10 -1 -10 4 0 6 5 11 10 11 6 0 10 -2 10 -4z m3137 -48 c-3 -8 -6
-5 -6 6 -1 11 2 17 5 13 3 -3 4 -12 1 -19z m480 -60 c-3 -8 -6 -5 -6 6 -1 11
2 17 5 13 3 -3 4 -12 1 -19z m-3326 -243 c11 -22 26 -51 34 -65 8 -14 15 -33
15 -43 0 -10 6 -30 14 -45 8 -16 20 -57 26 -92 12 -65 41 -149 87 -248 13 -30
22 -56 20 -58 -12 -12 -111 -15 -177 -4 -41 6 -95 14 -120 16 -25 3 -47 8 -50
12 -3 4 -2 72 2 152 8 172 8 171 8 234 0 76 19 166 47 220 l15 30 30 -35 c16
-19 38 -52 49 -74z m3627 -62 c2 -24 -2 -34 -17 -43 -12 -6 -21 -20 -21 -30 0
-11 -4 -20 -10 -20 -6 0 -10 29 -10 66 l0 65 28 -3 c22 -2 28 -8 30 -35z m146
10 c16 -82 18 -103 8 -103 -6 0 -16 8 -21 18 -10 16 -10 16 -11 0 0 -10 -7
-18 -16 -18 -10 0 -14 6 -11 18 3 9 8 38 12 65 7 53 30 64 39 20z m174 -40 c2
-52 0 -63 -13 -63 -9 0 -16 10 -16 28 l-2 27 -4 -28 c-8 -52 -28 -23 -29 42
l-2 62 32 -3 c31 -3 31 -4 34 -65z m152 57 c0 -5 -4 -10 -9 -10 -4 0 -8 -18
-8 -40 0 -22 4 -40 8 -40 5 0 9 -7 9 -15 0 -9 -9 -15 -25 -15 -24 0 -25 2 -25
65 0 63 1 65 25 65 14 0 25 -4 25 -10z m130 -12 l9 -23 0 23 c1 13 7 22 16 22
12 0 15 -14 15 -65 0 -67 -13 -85 -30 -40 -12 31 -22 33 -18 3 2 -11 -3 -23
-9 -25 -10 -4 -13 13 -13 61 0 67 13 86 30 44z m200 12 c0 -5 -4 -10 -10 -10
-5 0 -10 -25 -10 -56 0 -73 -24 -70 -28 4 -2 29 -7 52 -13 52 -5 0 -9 5 -9 10
0 6 16 10 35 10 19 0 35 -4 35 -10z m144 -27 c4 -21 9 -50 12 -65 4 -21 2 -28
-10 -28 -9 0 -16 8 -16 18 -1 16 -1 16 -11 0 -5 -10 -15 -18 -21 -18 -10 0 -8
21 8 103 8 39 31 33 38 -10z m136 -13 c0 -38 4 -50 15 -50 8 0 15 -7 15 -16 0
-11 -8 -14 -27 -12 -27 3 -28 6 -31 66 -2 51 0 62 13 62 11 0 15 -12 15 -50z
m-2077 -377 c-7 -2 -19 -2 -25 0 -7 3 -2 5 12 5 14 0 19 -2 13 -5z m973 -146
c4 -4 2 -7 -3 -7 -14 0 -14 -90 0 -107 7 -10 4 -13 -12 -13 -19 0 -21 5 -21
69 0 55 3 69 15 67 8 -1 18 -5 21 -9z m64 -9 c0 7 3 12 8 12 4 0 7 -29 7 -65
0 -36 -3 -65 -7 -65 -5 0 -9 8 -9 18 -1 16 -2 16 -6 0 -10 -38 -18 -15 -19 53
0 61 2 68 13 53 7 -10 13 -12 13 -6z m100 -24 c0 -22 -6 -37 -15 -40 -8 -4
-15 -17 -15 -30 0 -13 -4 -24 -10 -24 -10 0 -14 122 -4 132 3 3 14 4 25 1 14
-4 19 -14 19 -39z m67 -81 c15 -12 15 -13 -5 -13 -21 0 -22 4 -20 73 l2 72 3
-60 c3 -41 9 -64 20 -72z m269 111 c-3 -9 -6 -40 -6 -70 0 -30 -4 -54 -10 -54
-5 0 -10 24 -10 54 0 30 -5 58 -10 61 -15 9 -2 25 22 25 14 0 18 -5 14 -16z
m144 -20 c0 -17 -17 -18 -23 -1 -3 6 -6 -10 -6 -38 0 -35 2 -45 9 -35 11 18
25 6 16 -15 -3 -9 -14 -15 -23 -13 -14 2 -19 15 -21 56 -3 60 11 90 34 71 8
-6 14 -18 14 -25z m139 4 l9 -33 1 33 c2 62 21 22 21 -44 0 -70 -11 -83 -28
-31 l-10 32 -1 -32 c-1 -18 -4 -33 -8 -33 -6 0 -8 109 -3 138 2 11 11 -4 19
-30z m111 23 c2 -1 -1 -6 -8 -13 -7 -7 -12 -36 -12 -65 0 -29 -4 -53 -9 -53
-8 0 -20 127 -13 135 2 2 11 2 20 0 9 -2 19 -4 22 -4z m70 0 c0 -6 -4 -12 -8
-15 -12 -7 -12 -96 -1 -96 5 0 9 -4 9 -10 0 -5 -9 -10 -20 -10 -18 0 -20 7
-20 63 0 35 3 67 7 70 10 10 33 8 33 -2z m59 -23 c9 -32 9 -32 10 -5 1 15 6
27 11 27 6 0 10 -28 10 -65 0 -69 -13 -86 -26 -32 l-8 32 -7 -35 c-5 -27 -7
-18 -8 38 0 39 1 72 4 72 2 0 9 -15 14 -32z m106 23 c3 -5 1 -12 -5 -16 -5 -3
-10 -31 -10 -61 0 -30 -3 -54 -7 -54 -5 0 -6 23 -5 50 2 28 -1 56 -7 64 -6 7
-8 16 -4 19 9 10 31 8 38 -2z m-835 -66 c0 -37 -4 -65 -10 -65 -6 0 -10 28
-10 65 0 37 4 65 10 65 6 0 10 -28 10 -65z m80 44 c0 -18 -2 -19 -15 -9 -13
11 -15 6 -14 -36 0 -27 3 -43 6 -36 8 19 23 14 23 -9 0 -15 -5 -20 -22 -17
-20 3 -23 10 -26 52 -4 60 2 76 28 76 14 0 20 -7 20 -21z m50 -44 c0 -37 -4
-65 -10 -65 -6 0 -10 28 -10 65 0 37 4 65 10 65 6 0 10 -28 10 -65z m295 0 c0
-53 -2 -60 -20 -60 -17 0 -20 8 -23 49 -4 60 3 79 25 74 15 -3 18 -14 18 -63z
m-4880 35 c-3 -5 -12 -10 -18 -10 -7 0 -6 4 3 10 19 12 23 12 15 0z m79 -40
c-6 -6 -10 -3 -10 10 0 13 4 16 10 10 7 -7 7 -13 0 -20z m51 2 c-3 -3 -11 0
-18 7 -9 10 -8 11 6 5 10 -3 15 -9 12 -12z m1989 -7 c-4 -8 -10 -12 -15 -9
-11 6 -2 24 11 24 5 0 7 -7 4 -15z m56 5 c18 -12 2 -12 -25 0 -13 6 -15 9 -5
9 8 0 22 -4 30 -9z m-514 -11 c33 15 39 14 25 -3 -9 -11 -2 -13 39 -12 27 1
50 -2 50 -7 0 -4 -4 -5 -10 -2 -5 3 -10 -3 -10 -15 0 -12 -5 -18 -10 -15 -6 4
-8 11 -5 16 4 5 2 9 -4 9 -5 0 -11 -5 -13 -12 -3 -7 -11 -9 -24 -3 -10 4 -22
7 -26 7 -5 -1 -8 3 -8 9 0 6 -7 9 -15 5 -8 -3 -20 1 -27 8 -7 7 -20 11 -28 9
-13 -4 -13 -3 0 6 10 7 18 6 27 -1 10 -8 21 -8 39 1z m961 5 c-3 -3 -12 -4
-19 -1 -8 3 -5 6 6 6 11 1 17 -2 13 -5z m-481 -21 c-1 -13 6 -18 27 -17 15 0
27 -4 27 -8 0 -4 -16 -8 -35 -8 -27 0 -35 4 -35 18 0 16 8 32 16 32 1 0 1 -8
0 -17z m1729 7 c3 -5 1 -10 -4 -10 -6 0 -11 5 -11 10 0 6 2 10 4 10 3 0 8 -4
11 -10z m-2057 -39 c-17 -27 -23 -27 -23 3 0 16 4 22 14 18 10 -4 12 -1 6 9
-6 11 -5 11 4 3 10 -9 10 -16 -1 -33z m1662 24 c20 -25 6 -31 -17 -7 -14 14
-18 22 -9 22 8 0 19 -7 26 -15z m-1363 -20 c0 -8 -4 -12 -9 -9 -5 3 -6 10 -3
15 9 13 12 11 12 -6z m1110 4 c-14 -8 -15 -14 -5 -32 10 -21 10 -21 -7 -7 -10
8 -28 13 -39 11 -20 -3 -20 -2 -4 15 9 11 29 20 44 21 23 1 25 -1 11 -8z
m-1607 -11 c0 -6 -3 -9 -6 -5 -4 3 -19 0 -35 -9 -16 -8 -29 -11 -29 -6 0 4 12
13 28 19 37 15 42 15 42 1z m1708 -5 c2 -7 -1 -13 -8 -13 -6 0 -9 4 -5 9 3 5
-5 12 -17 14 -22 5 -21 5 1 4 14 -1 26 -8 29 -14z m-1458 -15 c0 -6 -6 -5 -15
2 -8 7 -15 14 -15 16 0 2 7 1 15 -2 8 -4 15 -11 15 -16z m-816 -3 c-4 -8 -10
-12 -15 -9 -11 6 -2 24 11 24 5 0 7 -7 4 -15z m41 -3 c-3 -3 -11 0 -18 7 -9
10 -8 11 6 5 10 -3 15 -9 12 -12z m893 -11 c-7 -2 -14 1 -16 8 -3 9 -8 9 -20
-1 -15 -12 -16 -11 -4 4 11 14 17 15 33 5 12 -8 15 -13 7 -16z m102 25 c0 -11
-19 -15 -25 -6 -3 5 1 10 9 10 9 0 16 -2 16 -4z m880 -10 c-7 -7 -13 -7 -20 0
-6 6 -3 10 10 10 13 0 16 -4 10 -10z m-1435 -6 c-3 -5 -12 -10 -18 -10 -7 0
-6 4 3 10 19 12 23 12 15 0z m120 0 c3 -5 1 -10 -4 -10 -6 0 -11 5 -11 10 0 6
2 10 4 10 3 0 8 -4 11 -10z m1615 6 c0 -3 -4 -8 -10 -11 -5 -3 -10 -1 -10 4 0
6 5 11 10 11 6 0 10 -2 10 -4z"/>
<path d="M5282 220 c0 -14 2 -19 5 -12 2 6 2 18 0 25 -3 6 -5 1 -5 -13z"/>
<path d="M5843 195 c0 -27 2 -38 4 -22 2 15 2 37 0 50 -2 12 -4 0 -4 -28z"/>
<path d="M428 2067 c-35 -32 -44 -83 -24 -131 18 -42 12 -56 -46 -118 -16 -18
-41 -54 -55 -82 -24 -48 -25 -57 -24 -206 1 -86 -2 -168 -7 -181 -6 -13 -22
-82 -36 -153 -30 -143 -32 -136 41 -158 24 -7 43 -17 44 -23 3 -30 -4 -159
-12 -220 -11 -74 -17 -128 -24 -184 -2 -19 4 -81 12 -138 16 -110 13 -135 -14
-132 -44 4 -104 -2 -99 -10 7 -11 76 -20 76 -9 0 13 17 9 23 -6 3 -8 -2 -13
-16 -13 -41 -1 -47 -3 -47 -19 0 -13 -8 -15 -40 -12 -25 2 -39 0 -37 -7 5 -16
68 -16 103 0 49 23 144 20 144 -4 0 -4 27 -3 60 2 37 6 59 14 57 21 -3 6 -10
10 -16 8 -6 -1 -11 2 -11 7 0 5 25 13 55 16 30 4 55 11 55 15 0 8 -64 5 -79
-4 -6 -4 -11 -1 -11 6 0 8 -13 15 -31 16 -42 3 -44 5 -47 44 -2 25 0 29 8 18
7 -12 10 -8 10 17 0 17 -6 33 -12 35 -17 6 -15 183 3 223 7 17 14 35 14 40 1
6 7 21 12 35 6 14 14 44 18 67 4 24 10 45 14 47 9 6 101 -82 101 -97 1 -7 3
-91 6 -187 8 -310 5 -284 39 -291 17 -4 57 -7 89 -8 l59 -1 -23 25 c-13 14
-20 25 -15 25 4 0 1 8 -7 18 -18 20 -30 62 -18 62 5 0 11 -10 13 -23 2 -12 5
-1 6 25 0 26 -4 59 -9 73 -14 36 -20 174 -8 181 5 3 7 11 5 18 -3 6 1 20 9 31
23 32 16 68 -35 176 -46 97 -49 107 -41 149 19 94 12 200 -21 316 -26 94 -48
224 -53 314 -1 14 -5 31 -9 38 -5 7 -6 25 -2 40 5 24 1 31 -22 42 l-28 13 30
6 c22 5 31 12 33 31 2 14 7 30 12 35 14 18 22 75 11 75 -6 0 -11 9 -11 20 0
31 -73 100 -112 106 -26 5 -39 1 -60 -19z"/>
<path d="M2802 1998 c-30 -15 -40 -24 -33 -31 14 -14 14 -87 1 -87 -5 0 -10
-7 -10 -15 0 -8 6 -15 13 -15 12 0 28 -32 47 -92 7 -23 6 -28 -9 -28 -34 0
-40 -19 -20 -64 23 -52 24 -68 0 -114 -10 -20 -22 -66 -26 -102 -4 -36 -11
-84 -16 -107 -5 -23 -10 -62 -11 -88 0 -25 -5 -48 -10 -51 -4 -3 -8 -17 -8
-31 0 -13 -9 -36 -20 -50 -14 -18 -20 -41 -20 -73 0 -34 5 -52 20 -65 13 -12
20 -14 20 -5 0 10 3 10 15 0 12 -10 15 -10 15 4 0 9 5 16 10 16 6 0 10 -63 10
-169 0 -117 5 -190 15 -236 16 -67 16 -222 1 -257 -5 -10 -6 -23 -4 -30 3 -7
-2 -18 -11 -25 -13 -10 -3 -11 49 -5 36 3 80 7 98 7 17 0 32 4 32 9 0 6 5 5
12 -2 12 -12 124 -17 151 -7 11 5 13 36 11 178 -3 150 -20 443 -26 465 -2 4 5
28 15 54 16 41 23 48 54 54 l36 7 -7 81 c-17 213 -19 337 -6 391 11 45 11 63
0 97 -13 45 -79 118 -105 118 -8 0 -15 5 -15 10 0 6 -7 10 -15 10 -8 0 -15 3
-15 8 0 4 -10 23 -22 42 -15 25 -21 48 -19 80 2 49 -11 82 -46 118 -30 29 -92
29 -151 0z m170 -1600 c-7 -7 -12 -8 -12 -2 0 14 12 26 19 19 2 -3 -1 -11 -7
-17z"/>
<path d="M28 763 c12 -2 32 -2 45 0 12 2 2 4 -23 4 -25 0 -35 -2 -22 -4z"/>
<path d="M5110 618 c0 -7 -7 -60 -15 -118 -18 -133 -18 -150 -1 -150 15 0 26
21 26 51 0 32 19 21 22 -13 2 -23 9 -34 22 -36 17 -4 18 1 13 44 -4 27 -12 91
-18 142 -10 79 -14 92 -30 92 -11 0 -19 -6 -19 -12z m29 -155 c1 -7 -3 -13 -9
-13 -5 0 -10 15 -9 33 0 27 2 29 9 12 5 -11 9 -26 9 -32z"/>
<path d="M5250 490 l0 -140 33 0 c57 0 67 22 67 139 0 125 -7 141 -60 141
l-40 0 0 -140z m60 6 c0 -53 -4 -98 -10 -101 -6 -4 -10 30 -10 94 0 61 4 101
10 101 6 0 10 -38 10 -94z"/>
<path d="M5430 493 c14 -125 17 -138 35 -138 17 0 21 13 37 130 9 72 17 133
17 138 1 4 -7 7 -18 7 -15 0 -20 -12 -28 -82 l-10 -83 -2 67 c-1 79 -7 98 -30
98 -16 0 -16 -9 -1 -137z"/>
<path d="M5590 490 c0 -118 2 -140 15 -140 13 0 15 22 15 140 0 118 -2 140
-15 140 -13 0 -15 -22 -15 -140z"/>
<path d="M5700 604 c-15 -39 -13 -52 26 -121 33 -60 38 -93 14 -93 -5 0 -10 9
-10 20 0 13 -7 20 -20 20 -24 0 -26 -26 -4 -58 19 -27 60 -29 74 -3 18 35 11
84 -20 131 -29 44 -40 90 -20 90 6 0 10 -7 10 -15 0 -8 9 -15 20 -15 11 0 20
7 20 16 0 55 -71 78 -90 28z"/>
<path d="M5870 611 c-5 -11 -10 -67 -10 -124 0 -88 3 -106 18 -120 22 -20 53
-22 70 -5 8 8 12 51 12 128 0 77 -4 120 -12 128 -19 19 -66 15 -78 -7z m50
-122 c0 -64 -4 -98 -10 -94 -6 3 -10 48 -10 101 0 56 4 94 10 94 6 0 10 -40
10 -101z"/>
<path d="M6033 493 c2 -121 4 -138 19 -141 14 -3 17 7 20 60 4 82 22 82 26 0
3 -53 6 -63 20 -60 14 3 17 14 15 63 -1 33 -2 89 -2 124 0 34 -5 69 -12 77 -6
8 -29 14 -50 14 l-38 0 2 -137z m62 62 c0 -16 -6 -30 -12 -32 -9 -3 -13 7 -13
32 0 25 4 35 13 33 6 -3 12 -17 12 -33z"/>
<path d="M6200 618 c1 -7 7 -42 15 -78 8 -36 14 -93 15 -127 0 -56 2 -63 20
-63 18 0 20 7 20 65 0 56 5 96 26 193 3 17 0 22 -16 22 -16 0 -20 -7 -20 -32
0 -18 -5 -40 -10 -48 -7 -11 -10 -2 -10 33 0 40 -3 47 -20 47 -11 0 -20 -6
-20 -12z"/>
<path d="M148 333 c7 -3 16 -2 19 1 4 3 -2 6 -13 5 -11 0 -14 -3 -6 -6z"/>
<path d="M5 320 c3 -5 12 -10 20 -10 8 0 17 5 20 10 4 6 -5 10 -20 10 -15 0
-24 -4 -20 -10z"/>
<path d="M100 300 c19 -5 41 -4 50 0 10 6 -1 9 -35 9 -48 -1 -49 -1 -15 -9z"/>
<path d="M178 303 c6 -2 18 -2 25 0 6 3 1 5 -13 5 -14 0 -19 -2 -12 -5z"/>
<path d="M1148 303 c12 -2 30 -2 40 0 9 3 -1 5 -23 4 -22 0 -30 -2 -17 -4z"/>
<path d="M2580 300 c0 -6 7 -10 15 -10 8 0 15 2 15 4 0 2 -7 6 -15 10 -8 3
-15 1 -15 -4z"/>
<path d="M3636 294 c-23 -16 -20 -19 15 -22 31 -2 59 12 59 29 0 13 -55 7 -74
-7z"/>
<path d="M3165 290 c-3 -5 -1 -10 4 -10 6 0 11 5 11 10 0 6 -2 10 -4 10 -3 0
-8 -4 -11 -10z"/>
<path d="M640 280 c0 -5 5 -10 10 -10 6 0 10 5 10 10 0 6 -4 10 -10 10 -5 0
-10 -4 -10 -10z"/>
<path d="M760 266 c11 -11 127 -9 147 3 8 4 -24 7 -71 7 -50 -1 -81 -5 -76
-10z"/>
<path d="M3128 273 c7 -3 16 -2 19 1 4 3 -2 6 -13 5 -11 0 -14 -3 -6 -6z"/>
<path d="M293 256 c-20 -11 -17 -13 30 -11 64 3 67 4 42 15 -27 12 -46 10 -72
-4z"/>
<path d="M1728 263 c7 -3 16 -2 19 1 4 3 -2 6 -13 5 -11 0 -14 -3 -6 -6z"/>
<path d="M1840 260 c-9 -6 -10 -10 -3 -10 6 0 15 5 18 10 8 12 4 12 -15 0z"/>
<path d="M2304 249 c-3 -5 -17 -10 -32 -10 -18 -1 -21 -3 -9 -6 10 -3 26 -1
35 3 9 4 27 6 40 5 30 -3 28 6 -3 11 -14 3 -28 1 -31 -3z"/>
<path d="M3226 251 c-6 -9 26 -21 59 -21 13 0 16 3 9 10 -15 15 -61 22 -68 11z"/>
<path d="M3547 253 c-3 -5 11 -9 31 -11 40 -3 40 2 0 12 -15 3 -29 3 -31 -1z"/>
<path d="M4405 250 c3 -5 8 -10 11 -10 2 0 4 5 4 10 0 6 -5 10 -11 10 -5 0 -7
-4 -4 -10z"/>
<path d="M5 240 c3 -5 16 -10 28 -9 21 0 21 1 2 9 -28 12 -37 12 -30 0z"/>
<path d="M530 234 c0 -8 5 -12 10 -9 6 4 8 11 5 16 -9 14 -15 11 -15 -7z"/>
<path d="M315 230 c-3 -5 -1 -10 4 -10 6 0 11 5 11 10 0 6 -2 10 -4 10 -3 0
-8 -4 -11 -10z"/>
<path d="M497 233 c-10 -9 -9 -23 2 -23 5 0 11 7 15 15 5 15 -5 20 -17 8z"/>
<path d="M3753 233 c-39 -4 -64 -26 -47 -42 4 -3 9 0 11 6 3 9 10 10 23 3 10
-6 21 -6 24 -2 2 4 22 9 43 10 46 3 81 30 39 30 -15 0 -29 -4 -32 -9 -3 -5
-10 -9 -15 -9 -6 0 -7 5 -4 10 3 6 5 9 3 8 -2 -1 -22 -3 -45 -5z"/>
<path d="M3887 233 c-4 -3 -7 -13 -7 -21 0 -12 3 -12 15 -2 8 7 15 16 15 21 0
11 -14 12 -23 2z"/>
<path d="M70 220 c0 -5 5 -10 10 -10 6 0 10 5 10 10 0 6 -4 10 -10 10 -5 0
-10 -4 -10 -10z"/>
<path d="M458 223 c7 -3 16 -2 19 1 4 3 -2 6 -13 5 -11 0 -14 -3 -6 -6z"/>
<path d="M2430 220 c0 -5 5 -10 11 -10 5 0 7 5 4 10 -3 6 -8 10 -11 10 -2 0
-4 -4 -4 -10z"/>
<path d="M3026 221 c-7 -11 22 -36 31 -27 3 3 1 6 -6 6 -8 0 -11 7 -7 15 6 16
-9 21 -18 6z"/>
<path d="M3060 219 c0 -5 5 -7 10 -4 6 3 10 8 10 11 0 2 -4 4 -10 4 -5 0 -10
-5 -10 -11z"/>
<path d="M3651 212 c20 -14 49 -10 49 7 0 5 -15 9 -34 8 -33 -1 -34 -2 -15
-15z"/>
<path d="M3968 223 c7 -3 16 -2 19 1 4 3 -2 6 -13 5 -11 0 -14 -3 -6 -6z"/>
<path d="M6 212 c-2 -4 2 -15 9 -25 11 -16 13 -15 13 8 0 24 -12 33 -22 17z"/>
<path d="M1850 210 c0 -5 5 -10 11 -10 5 0 7 5 4 10 -3 6 -8 10 -11 10 -2 0
-4 -4 -4 -10z"/>
<path d="M110 200 c0 -5 10 -10 23 -10 18 0 19 2 7 10 -19 13 -30 13 -30 0z"/>
<path d="M411 193 c13 -15 35 -17 43 -4 3 5 -8 11 -24 13 -24 4 -27 2 -19 -9z"/>
<path d="M3993 196 c-31 -15 -29 -21 8 -20 16 0 38 9 47 19 16 16 16 17 -5 6
-27 -14 -36 -14 -28 -1 3 6 5 9 3 9 -2 -1 -13 -6 -25 -13z"/>
<path d="M3510 190 c0 -5 5 -10 11 -10 5 0 7 5 4 10 -3 6 -8 10 -11 10 -2 0
-4 -4 -4 -10z"/>
<path d="M3635 190 c-8 -14 13 -22 31 -12 14 8 14 10 -5 15 -11 3 -23 1 -26
-3z"/>
<path d="M1770 180 c0 -5 5 -10 10 -10 6 0 10 5 10 10 0 6 -4 10 -10 10 -5 0
-10 -4 -10 -10z"/>
<path d="M3755 179 l-40 -6 38 -2 c33 -1 37 -4 32 -20 -3 -11 -1 -22 5 -26 9
-6 14 10 13 43 -1 6 6 12 14 12 8 0 11 -4 8 -10 -4 -6 6 -8 27 -6 18 3 39 5
46 5 7 1 11 5 7 11 -6 10 -87 10 -150 -1z"/>
<path d="M3690 170 c0 -5 5 -10 11 -10 5 0 7 5 4 10 -3 6 -8 10 -11 10 -2 0
-4 -4 -4 -10z"/>
<path d="M3920 170 c0 -5 5 -10 11 -10 5 0 7 5 4 10 -3 6 -8 10 -11 10 -2 0
-4 -4 -4 -10z"/>
<path d="M3655 150 c3 -5 8 -10 11 -10 2 0 4 5 4 10 0 6 -5 10 -11 10 -5 0 -7
-4 -4 -10z"/>
<path d="M3725 150 c-3 -5 1 -10 9 -10 9 0 16 5 16 10 0 6 -4 10 -9 10 -6 0
-13 -4 -16 -10z"/>
<path d="M3832 147 c-12 -6 -22 -14 -22 -19 0 -12 14 -10 28 4 10 10 15 10 21
-1 5 -7 11 -9 14 -5 10 17 -18 31 -41 21z"/>
<path d="M3728 123 c7 -3 16 -2 19 1 4 3 -2 6 -13 5 -11 0 -14 -3 -6 -6z"/>
</g>
</svg>
